<svg width="45" height="45" viewBox="0 0 45 45" fill="none" xmlns="http://www.w3.org/2000/svg">
<path d="M41.1937 34.3688C41.1937 35.0438 41.0437 35.7376 40.725 36.4126C40.4062 37.0876 39.9938 37.7251 39.45 38.3251C38.5313 39.3376 37.5187 40.0688 36.375 40.5376C35.25 41.0063 34.0313 41.2501 32.7188 41.2501C30.8063 41.2501 28.7625 40.8001 26.6062 39.8813C24.45 38.9626 22.2937 37.7251 20.1562 36.1688C18 34.5938 15.9562 32.8501 14.0062 30.9188C12.075 28.9688 10.3312 26.9251 8.775 24.7876C7.2375 22.6501 6 20.5126 5.1 18.3938C4.2 16.2563 3.75 14.2126 3.75 12.2626C3.75 10.9876 3.975 9.76884 4.425 8.64384C4.875 7.50009 5.5875 6.45009 6.58125 5.51259C7.78125 4.33134 9.09375 3.75009 10.4813 3.75009C11.0063 3.75009 11.5313 3.86259 12 4.08759C12.4875 4.31259 12.9188 4.65009 13.2563 5.13759L17.6063 11.2688C17.9438 11.7376 18.1875 12.1688 18.3562 12.5813C18.525 12.9751 18.6188 13.3688 18.6188 13.7251C18.6188 14.1751 18.4875 14.6251 18.225 15.0563C17.9813 15.4876 17.625 15.9376 17.175 16.3876L15.75 17.8688C15.5437 18.0751 15.45 18.3188 15.45 18.6188C15.45 18.7688 15.4688 18.9001 15.5063 19.0501C15.5625 19.2001 15.6188 19.3126 15.6563 19.4251C15.9938 20.0438 16.575 20.8501 17.4 21.8251C18.2437 22.8001 19.1437 23.7938 20.1187 24.7876C21.1312 25.7813 22.1062 26.7001 23.1 27.5438C24.075 28.3688 24.8812 28.9313 25.5187 29.2688C25.6125 29.3063 25.725 29.3626 25.8562 29.4188C26.0062 29.4751 26.1562 29.4938 26.325 29.4938C26.6437 29.4938 26.8875 29.3813 27.0937 29.1751L28.5188 27.7688C28.9875 27.3001 29.4375 26.9438 29.8688 26.7188C30.3 26.4563 30.7312 26.3251 31.2 26.3251C31.5562 26.3251 31.9313 26.4001 32.3438 26.5688C32.7562 26.7376 33.1875 26.9813 33.6563 27.3001L39.8625 31.7063C40.35 32.0438 40.6875 32.4376 40.8937 32.9063C41.0812 33.3751 41.1937 33.8438 41.1937 34.3688Z" stroke="white" stroke-width="2.8125" stroke-miterlimit="10"/>
<path d="M34.6875 16.8752C34.6875 15.7502 33.8062 14.0252 32.4937 12.6189C31.2937 11.3252 29.7 10.3127 28.125 10.3127" stroke="white" stroke-width="2.8125" stroke-linecap="round" stroke-linejoin="round"/>
<path d="M41.25 16.875C41.25 9.61875 35.3812 3.75 28.125 3.75" stroke="white" stroke-width="2.8125" stroke-linecap="round" stroke-linejoin="round"/>
</svg>
